<svg width="256" height="256" viewBox="0 0 256 256" fill="none" xmlns="http://www.w3.org/2000/svg">
    <defs>
        <linearGradient id="grad" x1="0" y1="0" x2="1" y2="1">
            <stop offset="0%" stop-color="#F5A623"/>
            <stop offset="100%" stop-color="#E67E0D"/>
        </linearGradient>
    </defs>

    <rect x="8" y="8" width="240" height="240" rx="48"
          fill="#FAFAFA" stroke="#F0F0F0" stroke-width="2"/>

    <!-- Bars -->
    <rect x="68" y="144" width="20" height="44" rx="6" fill="url(#grad)"/>
    <rect x="100" y="118" width="20" height="70" rx="6" fill="url(#grad)"/>
    <rect x="132" y="132" width="20" height="56" rx="6" fill="url(#grad)"/>
    <rect x="164" y="96" width="20" height="92" rx="6" fill="url(#grad)"/>

    <!-- Trend line -->
    <path d="M78 126L110 102L142 110L174 76"
          stroke="url(#grad)"
          stroke-width="7"
          stroke-linecap="round"
          stroke-linejoin="round"/>

    <circle cx="78" cy="126" r="5" fill="#E67E0D"/>
    <circle cx="110" cy="102" r="5" fill="#E67E0D"/>
    <circle cx="142" cy="110" r="5" fill="#E67E0D"/>
    <circle cx="174" cy="76" r="5" fill="#E67E0D"/>

    <!-- WiFi -->
    <path d="M78 72C88 62 104 62 114 72"
          stroke="#E67E0D"
          stroke-width="6"
          stroke-linecap="round"/>
    <path d="M86 82C93 75 99 75 106 82"
          stroke="#E67E0D"
          stroke-width="6"
          stroke-linecap="round"/>
    <circle cx="96" cy="92" r="4" fill="#E67E0D"/>
</svg>